<svg width="800" height="600" xmlns="http://www.w3.org/2000/svg">
  <style>
    .title { font: bold 24px sans-serif; }
    .box { fill: #f0f4f8; stroke: #1e40af; stroke-width: 2; }
    .text { font: 14px sans-serif; fill: #111827; }
    .arrow { stroke: #6b7280; stroke-width: 2; fill: none; marker-end: url(#arrowhead); }
    .highlight { fill: #ef4444; }
  </style>
  
  <defs>
    <marker id="arrowhead" markerWidth="10" markerHeight="7" refX="9" refY="3.5" orient="auto">
      <polygon points="0 0, 10 3.5, 0 7" fill="#6b7280" />
    </marker>
  </defs>
  
  <rect width="100%" height="100%" fill="white" />
  
  <text x="400" y="40" text-anchor="middle" class="title">Problema na Exclusão de Edições</text>
  
  <!-- Editions Box -->
  <rect x="350" y="70" width="120" height="60" rx="5" class="box" />
  <text x="410" y="105" text-anchor="middle" class="text">editions</text>
  
  <!-- Tasks Box -->
  <rect x="350" y="190" width="120" height="60" rx="5" class="box" />
  <text x="410" y="225" text-anchor="middle" class="text">tasks</text>
  
  <!-- Task Reactions Box - Highlighted as the problem -->
  <rect x="550" y="190" width="120" height="60" rx="5" class="box" style="fill: #fee2e2;" />
  <text x="610" y="225" text-anchor="middle" class="text">task_reactions</text>
  <text x="610" y="245" text-anchor="middle" class="text highlight">MISSING!</text>
  
  <!-- Other Related Tables -->
  <rect x="150" y="190" width="120" height="60" rx="5" class="box" />
  <text x="210" y="225" text-anchor="middle" class="text">resources</text>
  
  <rect x="250" y="310" width="120" height="60" rx="5" class="box" />
  <text x="310" y="345" text-anchor="middle" class="text">mentions</text>
  
  <rect x="450" y="310" width="120" height="60" rx="5" class="box" />
  <text x="510" y="345" text-anchor="middle" class="text">task_comments</text>
  
  <rect x="150" y="430" width="120" height="60" rx="5" class="box" />
  <text x="210" y="465" text-anchor="middle" class="text">notifications</text>
  
  <rect x="450" y="430" width="120" height="60" rx="5" class="box" />
  <text x="510" y="465" text-anchor="middle" class="text">audit_logs</text>
  
  <!-- Arrows -->
  <!-- Edition to Tasks -->
  <path d="M 410 130 L 410 190" class="arrow" />
  
  <!-- Tasks to other tables -->
  <path d="M 350 220 L 270 220" class="arrow" />
  <path d="M 350 250 L 310 310" class="arrow" />
  <path d="M 470 250 L 510 310" class="arrow" />
  <path d="M 470 220 L 550 220" class="arrow" />
  
  <!-- To logs/notifications -->
  <path d="M 310 370 L 210 430" class="arrow" />
  <path d="M 510 370 L 510 430" class="arrow" />
  
  <!-- Legend -->
  <rect x="550" y="430" width="200" height="120" rx="5" fill="#f9fafb" stroke="#d1d5db" />
  <text x="650" y="450" text-anchor="middle" font-weight="bold" class="text">Problema Identificado:</text>
  <text x="560" y="475" class="text">1. Existe uma tabela task_reactions</text>
  <text x="560" y="495" class="text">que não está sendo limpa antes da</text>
  <text x="560" y="515" class="text">exclusão de tarefas.</text>
  <text x="560" y="535" class="text">2. Precisamos adicionar código para</text>
  <text x="560" y="555" class="text">excluir esses registros também.</text>
</svg>